<svg width="24" height="24" viewBox="0 0 24 24" fill="none" xmlns="http://www.w3.org/2000/svg">
<path d="M16.6519 14.9625C16.4164 15.7111 16.0036 16.3918 15.4487 16.9468C14.8937 17.5017 14.213 17.9145 13.4644 18.15C13.3551 18.1839 13.2413 18.2013 13.1269 18.2015C12.8579 18.2017 12.5979 18.1056 12.3937 17.9305C12.1896 17.7554 12.0549 17.513 12.0141 17.2472C11.9733 16.9814 12.029 16.7098 12.1713 16.4815C12.3135 16.2533 12.5328 16.0836 12.7894 16.0031C13.1928 15.8763 13.5597 15.654 13.8587 15.3549C14.1578 15.0559 14.3801 14.689 14.5069 14.2856C14.5512 14.1446 14.6228 14.0138 14.7177 13.9005C14.8126 13.7872 14.9289 13.6937 15.0599 13.6254C15.3245 13.4874 15.6331 13.4601 15.9178 13.5496C16.0588 13.594 16.1896 13.6656 16.3029 13.7605C16.4162 13.8554 16.5097 13.9717 16.578 14.1027C16.6463 14.2337 16.6882 14.3769 16.7012 14.5241C16.7142 14.6713 16.6981 14.8196 16.6537 14.9606L16.6519 14.9625ZM20.625 13.5C20.625 15.7874 19.7163 17.9812 18.0988 19.5988C16.4813 21.2163 14.2875 22.125 12 22.125C9.71251 22.125 7.51871 21.2163 5.9012 19.5988C4.2837 17.9812 3.375 15.7874 3.375 13.5C3.375 10.799 4.43156 8.04558 6.51375 5.31746C6.6102 5.19104 6.73235 5.08651 6.87215 5.01075C7.01195 4.935 7.16622 4.88973 7.32479 4.87795C7.48336 4.86617 7.64262 4.88814 7.79208 4.9424C7.94154 4.99667 8.0778 5.082 8.19187 5.19277L10.0378 6.98433L11.9062 1.86464C11.968 1.69525 12.0696 1.54319 12.2025 1.42127C12.3353 1.29936 12.4955 1.21116 12.6696 1.1641C12.8436 1.11705 13.0264 1.11252 13.2026 1.15091C13.3788 1.18929 13.5432 1.26945 13.6819 1.38464C15.7688 3.11714 20.625 7.76714 20.625 13.5ZM18.375 13.5C18.375 9.58964 15.5053 6.15089 13.4512 4.19152L11.5566 9.38527C11.4923 9.56157 11.3849 9.71898 11.2442 9.84317C11.1035 9.96736 10.934 10.0544 10.7511 10.0963C10.5681 10.1382 10.3776 10.1338 10.1969 10.0832C10.0162 10.0327 9.85093 9.93783 9.71625 9.80714L7.56656 7.72121C6.28125 9.69183 5.625 11.6306 5.625 13.5C5.625 15.1907 6.29665 16.8122 7.49219 18.0078C8.68774 19.2033 10.3092 19.875 12 19.875C13.6908 19.875 15.3123 19.2033 16.5078 18.0078C17.7034 16.8122 18.375 15.1907 18.375 13.5Z" fill="#FF8900"/>
</svg>
