<svg width="56" height="56" viewBox="0 0 56 56" fill="none" xmlns="http://www.w3.org/2000/svg">
<g clip-path="url(#clip0_35_50)">
<path d="M28 0C22.4621 0 17.0486 1.64217 12.444 4.71885C7.83947 7.79553 4.25064 12.1685 2.13139 17.2849C0.012132 22.4012 -0.542361 28.0311 0.538025 33.4625C1.61841 38.894 4.28515 43.8831 8.20102 47.799C12.1169 51.7149 17.106 54.3816 22.5375 55.462C27.9689 56.5424 33.5988 55.9879 38.7151 53.8686C43.8315 51.7494 48.2045 48.1605 51.2812 43.556C54.3578 38.9514 56 33.5379 56 28C55.9922 20.5763 53.0397 13.459 47.7903 8.20967C42.541 2.96035 35.4237 0.00783951 28 0ZM28 51.6923C23.3141 51.6923 18.7334 50.3028 14.8373 47.6994C10.9411 45.0961 7.90439 41.3959 6.11117 37.0666C4.31796 32.7374 3.84877 27.9737 4.76294 23.3779C5.67712 18.782 7.93359 14.5604 11.247 11.247C14.5604 7.93358 18.782 5.67711 23.3779 4.76293C27.9737 3.84876 32.7375 4.31795 37.0667 6.11116C41.3959 7.90438 45.0961 10.9411 47.6994 14.8373C50.3028 18.7334 51.6923 23.3141 51.6923 28C51.6852 34.2814 49.1868 40.3035 44.7451 44.7451C40.3035 49.1867 34.2814 51.6852 28 51.6923ZM45.2308 28C45.2308 28.5712 45.0039 29.1191 44.5999 29.523C44.196 29.9269 43.6482 30.1538 43.0769 30.1538H28C27.4288 30.1538 26.8809 29.9269 26.477 29.523C26.0731 29.1191 25.8462 28.5712 25.8462 28V12.9231C25.8462 12.3518 26.0731 11.804 26.477 11.4001C26.8809 10.9962 27.4288 10.7692 28 10.7692C28.5712 10.7692 29.1191 10.9962 29.523 11.4001C29.9269 11.804 30.1539 12.3518 30.1539 12.9231V25.8461H43.0769C43.6482 25.8461 44.196 26.0731 44.5999 26.477C45.0039 26.8809 45.2308 27.4288 45.2308 28Z" fill="black"/>
</g>
<defs>
<clipPath id="clip0_35_50">
<rect width="56" height="56" fill="white"/>
</clipPath>
</defs>
</svg>
