<svg width="24" height="24" viewBox="0 0 24 24" fill="none" xmlns="http://www.w3.org/2000/svg">
<path d="M20.0484 11.7618L9.54838 23.0118C9.43711 23.1306 9.29023 23.2099 9.12992 23.2379C8.9696 23.2658 8.80455 23.2409 8.65966 23.1668C8.51476 23.0927 8.3979 22.9735 8.3267 22.8272C8.2555 22.6808 8.23382 22.5153 8.26494 22.3556L9.63932 15.4809L4.23651 13.4521C4.12047 13.4087 4.017 13.3373 3.93533 13.2441C3.85366 13.151 3.79633 13.039 3.76847 12.9183C3.74062 12.7976 3.7431 12.6719 3.77569 12.5524C3.80828 12.4328 3.86998 12.3233 3.95526 12.2334L14.4553 0.983396C14.5665 0.864649 14.7134 0.785313 14.8737 0.757362C15.034 0.729411 15.1991 0.754362 15.344 0.828448C15.4889 0.902534 15.6057 1.02174 15.6769 1.16807C15.7481 1.3144 15.7698 1.47992 15.7387 1.63965L14.3606 8.52183L19.7634 10.5478C19.8786 10.5915 19.9812 10.6629 20.0622 10.7556C20.1433 10.8484 20.2002 10.9597 20.228 11.0797C20.2558 11.1998 20.2536 11.3248 20.2216 11.4437C20.1897 11.5627 20.1289 11.6719 20.0446 11.7618H20.0484Z" fill="#EEDA00"/>
</svg>
