<svg width="24" height="24" viewBox="0 0 24 24" fill="none" xmlns="http://www.w3.org/2000/svg">
<path d="M23.0026 18.8546V20.1402C23.0026 21.1639 22.5282 22.1456 21.6838 22.8695C20.8393 23.5933 19.694 24 18.4998 24C17.3056 24 16.1603 23.5933 15.3159 22.8695C14.4715 22.1456 13.9971 21.1639 13.9971 20.1402V18.8546C13.9971 18.6273 14.1024 18.4093 14.2899 18.2486C14.4774 18.0879 14.7317 17.9976 14.9968 17.9976H21.9953C22.1273 17.9967 22.2581 18.0183 22.3802 18.061C22.5024 18.1037 22.6135 18.1667 22.7071 18.2463C22.8008 18.326 22.8751 18.4208 22.9258 18.5252C22.9765 18.6296 23.0026 18.7415 23.0026 18.8546ZM8.99815 15.4265H1.99967C1.73451 15.4265 1.48022 15.5168 1.29272 15.6775C1.10522 15.8382 0.999891 16.0562 0.999891 16.2835V17.5691C0.999891 18.5919 1.47389 19.5729 2.31762 20.2961C3.16135 21.0194 4.3057 21.4257 5.49891 21.4257C6.69213 21.4257 7.83647 21.0194 8.6802 20.2961C9.52393 19.5729 9.99793 18.5919 9.99793 17.5691V16.2835C9.99793 16.0562 9.8926 15.8382 9.7051 15.6775C9.51761 15.5168 9.26331 15.4265 8.99815 15.4265ZM5.49891 0C4.04423 0 2.63329 1.10449 1.52478 3.10673C-0.216095 6.25416 -0.794719 10.9271 1.56102 13.3911C1.65495 13.4893 1.7732 13.5685 1.90721 13.6228C2.04122 13.6771 2.18763 13.7051 2.33585 13.7049H8.65323C8.80145 13.7051 8.94786 13.6771 9.08187 13.6228C9.21587 13.5685 9.33413 13.4893 9.42806 13.3911C11.7838 10.9271 11.2052 6.25095 9.4643 3.10673C8.35454 1.10449 6.94485 0 5.49891 0ZM15.3468 16.2835H21.6642C21.8124 16.2837 21.9588 16.2557 22.0928 16.2014C22.2268 16.1471 22.345 16.0679 22.439 15.9696C24.7947 13.5057 24.2161 8.82953 22.4752 5.68531C21.3617 3.67558 19.9508 2.57108 18.4961 2.57108C17.0414 2.57108 15.6355 3.67558 14.5257 5.67781C12.7848 8.82525 12.2062 13.4982 14.5619 15.9621C14.6555 16.0624 14.7742 16.1433 14.9092 16.1989C15.0442 16.2545 15.192 16.2835 15.3418 16.2835H15.3468Z" fill="#FFDDD9"/>
</svg>
