<svg width="24" height="24" viewBox="0 0 24 24" fill="none" xmlns="http://www.w3.org/2000/svg">
<path d="M20.2556 18V19.125C20.2556 20.0209 19.8997 20.88 19.2662 21.5135C18.6328 22.1469 17.7736 22.5028 16.8778 22.5028C15.9819 22.5028 15.1228 22.1469 14.4893 21.5135C13.8558 20.88 13.5 20.0209 13.5 19.125V18C13.5 17.8011 13.579 17.6103 13.7196 17.4697C13.8603 17.329 14.051 17.25 14.25 17.25H19.5C19.5989 17.2493 19.6971 17.2681 19.7887 17.3055C19.8803 17.3428 19.9637 17.398 20.0339 17.4677C20.1042 17.5374 20.1599 17.6203 20.198 17.7117C20.236 17.803 20.2556 17.901 20.2556 18ZM9.74996 15H4.49996C4.30105 15 4.11028 15.079 3.96963 15.2197C3.82898 15.3603 3.74996 15.5511 3.74996 15.75V16.875C3.74996 17.7701 4.10554 18.6285 4.73847 19.2615C5.37141 19.8944 6.22985 20.25 7.12496 20.25C8.02006 20.25 8.87851 19.8944 9.51144 19.2615C10.1444 18.6285 10.5 17.7701 10.5 16.875V15.75C10.5 15.5511 10.4209 15.3603 10.2803 15.2197C10.1396 15.079 9.94887 15 9.74996 15ZM7.12496 1.5C6.03371 1.5 4.97527 2.46656 4.14371 4.21875C2.83777 6.97312 2.40371 11.0625 4.1709 13.2187C4.24136 13.3048 4.33007 13.374 4.4306 13.4215C4.53113 13.469 4.64096 13.4936 4.75215 13.4934H9.49121C9.6024 13.4936 9.71223 13.469 9.81276 13.4215C9.91329 13.374 10.002 13.3048 10.0725 13.2187C11.8396 11.0625 11.4056 6.97031 10.0996 4.21875C9.26715 2.46656 8.20965 1.5 7.12496 1.5ZM14.5125 15.75H19.2515C19.3627 15.7502 19.4725 15.7256 19.5731 15.6781C19.6736 15.6306 19.7623 15.5613 19.8328 15.4753C21.6 13.3191 21.1659 9.22687 19.86 6.47531C19.0246 4.71656 17.9662 3.75 16.875 3.75C15.7837 3.75 14.729 4.71656 13.8965 6.46875C12.5906 9.22312 12.1565 13.3125 13.9237 15.4687C13.9939 15.5565 14.083 15.6273 14.1842 15.6759C14.2855 15.7246 14.3964 15.7499 14.5087 15.75H14.5125Z" fill="#FFB2FF"/>
</svg>
